<svg width="161" height="44" viewBox="0 0 161 44" fill="none" xmlns="http://www.w3.org/2000/svg">
    <path
        d="M70.2803 10.9597C75.6366 10.9597 79.0166 11.7715 81.3771 13.4728C83.2358 14.8637 84.6082 16.8873 84.6082 19.663C84.6082 23.0477 82.7809 25.7935 79.8557 27.4709C76.9698 29.1185 73.2839 29.7572 68.6099 29.7572H59.7168V28.9454C62.987 28.7126 63.136 28.5096 63.136 26.1398V14.601C63.136 12.1178 62.6812 11.9984 59.7168 11.7656V10.9537H70.2803V10.9597ZM66.4376 25.9129C66.4376 28.0798 67.6532 28.6887 70.4999 28.6887C77.3384 28.6887 80.836 25.131 80.836 20.0689C80.836 16.9171 79.4323 14.5174 76.4287 13.1266C74.6798 12.2909 72.4762 11.9685 69.9353 11.9685C68.2257 11.9685 67.316 12.1416 66.9395 12.3744C66.5945 12.5475 66.4455 12.8639 66.4455 13.9921V25.9129H66.4376Z"
        fill="#F8F8F8" />
    <path
        d="M97.9639 10.9598C100.662 10.9598 102.826 11.3359 104.387 12.2015C105.869 13.0372 106.896 14.3982 106.896 16.3084C106.896 20.5287 102.152 22.236 98.5364 22.236C98.1208 22.236 97.7365 22.2061 97.5091 22.1822L94.8898 21.6629V26.1757C94.8898 28.6053 95.1564 28.659 98.6541 28.9515V29.7633H88.1689V28.9515C91.4313 28.6948 91.5882 28.5157 91.5882 26.116V14.637C91.5882 12.0642 91.1725 12.0045 88.1689 11.7717V10.9598H97.9639ZM94.8819 20.6481C95.3368 20.8212 96.3641 21.0242 97.6502 21.0242C100.199 21.0242 103.352 20.0392 103.352 16.3979C103.352 13.2163 100.615 11.9448 97.4228 11.9448C96.3249 11.9448 95.525 12.0881 95.2976 12.291C94.9917 12.494 94.8819 12.8402 94.8819 13.6222V20.6481Z"
        fill="#F8F8F8" />
    <path
        d="M135.49 21.8658C133.137 22.0986 132.98 22.2717 132.98 23.9789V26.4084C132.98 27.4173 133.019 28.3724 133.207 29.1544C130.855 29.5603 127.773 30.193 124.581 30.193C115.954 30.193 110.716 26.1159 110.716 20.3018C110.716 14.2011 117.248 10.5598 124.848 10.5598C128.722 10.5598 131.568 11.1388 132.753 11.2821C132.831 12.3506 133.019 14.1175 133.325 15.9382L132.188 16.1113C131.278 13.6519 130.172 12.6133 127.781 12.0044C126.91 11.7716 125.349 11.6283 124.252 11.6283C118.44 11.6283 114.676 14.6667 114.676 19.9556C114.676 24.552 117.79 29.1185 125.161 29.1185C126.455 29.1185 127.632 28.9156 128.392 28.6291C129.192 28.2828 129.686 27.9664 129.686 26.7785V24.4087C129.686 22.2956 129.38 22.0628 125.734 21.8598V21.0241H135.497V21.8658H135.49Z"
        fill="#F8F8F8" />
    <path
        d="M160.85 29.9902C160.356 29.9902 159.94 29.9603 159.446 29.9305C156.67 29.7872 155.188 29.238 153.518 27.4472C152.114 25.9728 150.742 24.1521 149.526 22.6717C148.765 21.7465 148.271 21.5734 146.334 21.5734H145.001V26.116C145.001 28.5754 145.417 28.7187 148.459 28.9515V29.7633H138.312V28.9515C141.464 28.6948 141.731 28.5754 141.731 26.116V14.5773C141.731 12.1179 141.315 12.0343 138.312 11.7717V10.9598H147.997C150.765 10.9598 152.632 11.2225 154.074 11.9448C155.635 12.6969 156.662 13.9983 156.662 15.7652C156.662 18.2544 154.576 19.8124 151.761 20.7376C152.443 21.6331 154.074 23.5731 155.219 24.8744C156.623 26.4085 157.345 27.1308 158.223 27.8531C159.25 28.6948 160.121 29.0112 160.999 29.1843L160.85 29.9902ZM146.836 20.5944C148.812 20.5944 150.067 20.3616 151.016 19.7587C152.498 18.923 153.102 17.7649 153.102 16.2009C153.102 13.1088 150.404 11.9806 147.479 11.9806C146.381 11.9806 145.73 12.094 145.464 12.2671C145.119 12.4701 145.009 12.7566 145.009 13.5088V20.5944H146.836Z"
        fill="#F8F8F8" />
    <path
        d="M60.3896 38.0965C60.4145 39.0993 61.3184 39.5112 62.3549 39.5112C63.1012 39.5112 63.549 39.4217 63.9471 39.3023L64.1212 39.8336C63.7563 39.953 63.1261 40.0843 62.214 40.0843C60.4477 40.0843 59.3945 39.2605 59.3945 38.0308C59.3945 36.8011 60.4145 35.8341 62.0896 35.8341C63.9637 35.8341 64.4612 37.0041 64.4612 37.7503C64.4612 37.8995 64.4363 38.0189 64.428 38.0965H60.3896ZM63.4495 37.5652C63.4578 37.0936 63.1759 36.3594 62.0066 36.3594C60.9535 36.3594 60.4891 37.0519 60.4062 37.5652H63.4495Z"
        fill="#F8F8F8" />
    <path
        d="M112.924 34.6403C112.94 34.9029 112.642 35.1118 112.178 35.1118C111.763 35.1118 111.473 34.9029 111.473 34.6403C111.473 34.3657 111.779 34.1567 112.202 34.1567C112.65 34.1567 112.924 34.3657 112.924 34.6403ZM111.63 40.0783V35.8282H112.799V40.0783H111.63Z"
        fill="#F8F8F8" />
    <path
        d="M39.1326 33.1018L30.409 30.0827C30.2692 30.0358 30.1853 29.9351 30.1853 29.8211V18.107C30.1853 41.1729 29.9244 18.013 30.1853 18.107L39.7011 21.6427C39.8409 21.6896 39.7011 21.5353 39.7011 21.6427V32.8402C39.7011 33.0481 39.3935 33.189 39.1326 33.1018Z"
        fill="#F8F8F8" />
    <path
        d="M30.1853 18.107V29.8211C30.1853 29.9351 30.2692 30.0358 30.409 30.0827L39.1326 33.1018C39.3935 33.189 39.7011 33.0481 39.7011 32.8402V21.6427M30.1853 18.107C29.9244 18.013 30.1853 41.1729 30.1853 18.107ZM30.1853 18.107L39.7011 21.6427M39.7011 21.6427C39.7011 21.5353 39.8409 21.6896 39.7011 21.6427Z"
        stroke="black" stroke-miterlimit="10" />
    <path
        d="M40.6434 33.0814L49.3669 30.0623C49.5067 30.0154 49.5906 29.9147 49.5906 29.8007V18.0866C49.8516 17.9927 49.5906 41.1525 49.5906 18.0866L40.0748 21.6357C40.0748 21.5284 39.935 21.6827 40.0748 21.6357V32.8198C40.0748 33.0345 40.3824 33.1754 40.6434 33.0814Z"
        fill="#F8F8F8" />
    <path
        d="M49.5906 18.0866V29.8007C49.5906 29.9147 49.5067 30.0154 49.3669 30.0623L40.6434 33.0814C40.3824 33.1754 40.0748 33.0345 40.0748 32.8198V21.6357M49.5906 18.0866C49.5906 41.1525 49.8516 17.9927 49.5906 18.0866ZM49.5906 18.0866L40.0748 21.6357M40.0748 21.6357C39.935 21.6827 40.0748 21.5284 40.0748 21.6357Z"
        stroke="black" stroke-miterlimit="10" />
    <path
        d="M49.1865 18.1201L40.2207 21.4478C40.1275 21.4813 40.0063 21.488 39.9131 21.4545L30.8354 18.3348C30.5744 18.2475 30.5744 17.9725 30.8354 17.8853L39.9224 14.7655C40.0156 14.732 40.1181 14.732 40.2113 14.7655L49.1679 17.684C49.4382 17.7578 49.4475 18.0261 49.1865 18.1201Z"
        fill="#F8F8F8" stroke="black" stroke-miterlimit="10" />
    <path
        d="M24.8545 37.6632L16.1309 34.624C15.9911 34.577 15.9072 34.4764 15.9072 34.3624L16.2521 10.2297C16.2521 10.015 16.7181 10.3572 16.979 10.4511L25.3298 13.7989C25.4696 13.8459 25.3298 13.6849 25.3298 13.7989L25.423 37.4016C25.423 37.6163 25.1154 37.7572 24.8545 37.6632Z"
        fill="#F8F8F8" />
    <path
        d="M25.3298 13.7989L16.979 10.4511C16.7181 10.3572 16.2521 10.015 16.2521 10.2297L15.9072 34.3624C15.9072 34.4764 15.9911 34.577 16.1309 34.624L24.8545 37.6632C25.1154 37.7572 25.423 37.6163 25.423 37.4016L25.3298 13.7989ZM25.3298 13.7989C25.3298 13.6849 25.4696 13.8459 25.3298 13.7989Z"
        stroke="black" stroke-miterlimit="10" />
    <path
        d="M26.1496 37.6632L34.8731 34.624C35.0129 34.577 35.0968 34.4764 35.0968 34.3624L34.752 10.2297C34.752 10.015 34.286 10.3572 34.025 10.4511L25.6743 13.7989C25.6743 13.6849 25.5345 13.8459 25.6743 13.7989L25.5811 37.4016C25.5811 37.6163 25.8886 37.7572 26.1496 37.6632Z"
        fill="#F8F8F8" />
    <path
        d="M25.6743 13.7989L34.025 10.4511C34.286 10.3572 34.752 10.015 34.752 10.2297L35.0968 34.3624C35.0968 34.4764 35.0129 34.577 34.8731 34.624L26.1496 37.6632C25.8886 37.7572 25.5811 37.6163 25.5811 37.4016L25.6743 13.7989ZM25.6743 13.7989C25.5345 13.8459 25.6743 13.6849 25.6743 13.7989Z"
        stroke="black" stroke-miterlimit="10" />
    <path
        d="M34.6025 10.5853L25.6367 13.913C25.5435 13.9465 25.4223 13.9532 25.3291 13.9197L16.2514 10.8C15.9904 10.7128 15.9904 10.4377 16.2514 10.3505L25.3384 7.23073C25.4316 7.19718 25.5341 7.19718 25.6273 7.23073L34.5839 10.1492C34.8449 10.223 34.8635 10.4913 34.6025 10.5853Z"
        fill="#F8F8F8" stroke="black" stroke-miterlimit="10" />
    <path
        d="M9.94724 42.9703L1.22368 39.9512C1.08388 39.9043 1 39.8036 1 39.6896V4.90958C1 4.69489 1.30756 4.56072 1.56852 4.64793L10.2921 7.66703C10.4319 7.71399 10.5158 7.81462 10.5158 7.92867V42.7087C10.5158 42.9234 10.2082 43.0642 9.94724 42.9703Z"
        fill="#F8F8F8" stroke="black" stroke-miterlimit="10" />
    <path
        d="M11.0941 42.9703L19.8177 39.9512C19.9575 39.9043 20.0414 39.8036 20.0414 39.6896V4.90958C20.0414 4.69489 19.7338 4.56072 19.4728 4.64793L10.7493 7.66703C10.6095 7.71399 10.5256 7.81462 10.5256 7.92867V42.7087C10.5163 42.9234 10.8238 43.0642 11.0941 42.9703Z"
        fill="#F8F8F8" stroke="black" stroke-miterlimit="10" />
    <path
        d="M19.6953 4.37971L10.7294 7.70742C10.6362 7.74097 10.5151 7.74768 10.4219 7.71414L1.34416 4.59441C1.0832 4.50719 1.0832 4.23211 1.34416 4.14489L10.4312 1.02516C10.5244 0.991614 10.6269 0.991614 10.7201 1.02516L19.6767 3.94362C19.947 4.01742 19.9563 4.28578 19.6953 4.37971Z"
        fill="#F8F8F8" stroke="black" stroke-miterlimit="10" />
    <path
        d="M85.0476 39.1672C85.3588 39.2937 85.8998 39.4254 86.4259 39.4254C87.1817 39.4254 87.5374 39.1882 87.5374 38.8984C87.5374 38.5927 87.241 38.4241 86.4703 38.2449C85.4403 38.0183 84.9513 37.6653 84.9513 37.2384C84.9513 36.664 85.6997 36.1949 86.9297 36.1949C87.5077 36.1949 88.019 36.2951 88.3376 36.4163L88.0783 36.8853C87.856 36.7957 87.441 36.6798 86.9075 36.6798C86.2925 36.6798 85.9442 36.9011 85.9442 37.1646C85.9442 37.4597 86.2851 37.5915 87.0335 37.7654C88.0264 38.0025 88.5377 38.3082 88.5377 38.8352C88.5377 39.457 87.7523 39.8997 86.3888 39.8997C85.759 39.8997 85.181 39.8048 84.7734 39.6573L85.0476 39.1672Z"
        fill="#F8F8F8" />
</svg>
    