<svg width="37" height="37" viewBox="0 0 37 37" fill="none" xmlns="http://www.w3.org/2000/svg">
    <circle cx="18.5" cy="18.5" r="18.5" fill="#03C183" />
    <path
        d="M13.9331 28.3599C13.3355 27.8064 13.0367 27.5296 12.9828 27.1869C12.9667 27.0844 12.9667 26.9801 12.9827 26.8776C13.0362 26.5348 13.3347 26.2577 13.9317 25.7035L19.5741 20.4658C20.3136 19.7794 20.6833 19.4362 20.6833 19C20.6833 18.5638 20.3136 18.2206 19.5741 17.5342L13.9317 12.2965C13.3347 11.7423 13.0362 11.4652 12.9827 11.1224C12.9667 11.0199 12.9667 10.9156 12.9828 10.8131C13.0367 10.4704 13.3355 10.1936 13.9331 9.64008C14.4536 9.15797 14.7139 8.91692 15.0235 8.87298C15.1167 8.85975 15.2113 8.85975 15.3045 8.87298C15.6141 8.91692 15.8743 9.15797 16.3948 9.64008L24.9159 17.5327C25.6576 18.2197 26.0284 18.5632 26.0284 19C26.0284 19.4368 25.6576 19.7803 24.9159 20.4673L16.3948 28.3599C15.8743 28.842 15.6141 29.0831 15.3045 29.127C15.2113 29.1402 15.1167 29.1402 15.0235 29.127C14.7139 29.0831 14.4536 28.842 13.9331 28.3599Z"
        fill="white" />
</svg>