<svg width="70" height="70" viewBox="0 0 70 70" fill="none" xmlns="http://www.w3.org/2000/svg">
    <circle cx="35" cy="35" r="35" fill="#03C988" />
    <path fill-rule="evenodd" clip-rule="evenodd"
        d="M49.1072 46.8992L48.9512 47.0758L43.3261 52.7008C43.2754 52.7514 43.2219 52.7992 43.1657 52.8438L42.9384 52.9989L42.8009 53.0709L42.6377 53.1388L42.4381 53.1985L42.2189 53.2374L42.0621 53.249L41.8895 53.2467L41.6724 53.2213L41.4149 53.1567L41.2066 53.0743L41.0238 52.9762L40.8437 52.851L40.6743 52.7008L35.0492 47.0758C34.3169 46.3436 34.3169 45.1564 35.0492 44.4241C35.7251 43.7482 36.7887 43.6962 37.5243 44.2682L37.7009 44.4241L40.125 46.8468L40.1251 28.875C40.1251 27.9134 40.849 27.1209 41.7815 27.0126L42.0002 27C43.0358 27 43.8752 27.8394 43.8752 28.875L43.875 46.8468L46.2995 44.4241C46.9754 43.7482 48.039 43.6962 48.7746 44.2682L48.9512 44.4241C49.5708 45.0437 49.6661 45.989 49.2372 46.7089L49.1072 46.8992ZM20.0492 21.9239L25.6743 16.2989L25.8842 16.1178L26.0921 15.9838L26.3044 15.883L26.5017 15.8167L26.6724 15.7784L26.8895 15.7529H27.1111L27.3277 15.7783L27.5866 15.8432L27.6878 15.8798L27.8512 15.9534L27.9765 16.0236L28.1284 16.1268L28.248 16.2251L28.3261 16.2989L33.9512 21.9239L34.1072 22.1005C34.6315 22.7747 34.6315 23.7246 34.1072 24.3989L33.9512 24.5755L33.7746 24.7315C33.1003 25.2557 32.1504 25.2557 31.4761 24.7315L31.2995 24.5755L28.875 22.1528L28.8752 40.1247C28.8752 41.0862 28.1514 41.8788 27.2189 41.9871L27.0002 41.9997L26.7815 41.9871C25.9207 41.8871 25.2377 41.2041 25.1378 40.3433L25.1251 40.1247L25.125 22.1528L22.7009 24.5755L22.5243 24.7315C21.7887 25.3034 20.7251 25.2514 20.0492 24.5755C19.3733 23.8996 19.3213 22.836 19.8932 22.1005L20.0492 21.9239Z"
        fill="white" />
</svg>