<svg width="70" height="70" viewBox="0 0 70 70" fill="none" xmlns="http://www.w3.org/2000/svg">
    <circle cx="35" cy="35" r="35" fill="#03C988" />
    <path
        d="M15.75 51.3746H30.75C31.2473 51.3746 31.7242 51.1771 32.0758 50.8254C32.4275 50.4738 32.625 49.9969 32.625 49.4996C32.625 49.0023 32.4275 48.5254 32.0758 48.1738C31.7242 47.8221 31.2473 47.6246 30.75 47.6246H17.7581C18.2131 44.5024 19.7759 41.648 22.1611 39.5826C24.5463 37.5172 27.5948 36.3785 30.75 36.3746C32.9578 36.3938 35.1027 35.6399 36.813 34.2436C38.5232 32.8474 39.6911 30.8968 40.1142 28.7298C40.5373 26.5629 40.189 24.3162 39.1295 22.3792C38.07 20.4421 36.3663 18.9368 34.3134 18.1241C32.2606 17.3113 29.9882 17.2424 27.8899 17.9292C25.7916 18.6161 23.9997 20.0154 22.8248 21.8847C21.6499 23.754 21.166 25.9754 21.457 28.164C21.748 30.3526 22.7956 32.3704 24.4181 33.8677C21.306 35.1302 18.6408 37.2916 16.7629 40.076C14.885 42.8603 13.8795 46.1412 13.875 49.4996C13.875 49.9969 14.0725 50.4738 14.4242 50.8254C14.7758 51.1771 15.2527 51.3746 15.75 51.3746ZM30.75 21.3746C31.8625 21.3746 32.9501 21.7045 33.8751 22.3226C34.8001 22.9407 35.5211 23.8192 35.9468 24.847C36.3726 25.8748 36.484 27.0058 36.2669 28.097C36.0499 29.1881 35.5141 30.1904 34.7275 30.9771C33.9408 31.7638 32.9385 32.2995 31.8474 32.5165C30.7562 32.7336 29.6252 32.6222 28.5974 32.1964C27.5696 31.7707 26.6911 31.0497 26.073 30.1247C25.4549 29.1997 25.125 28.1121 25.125 26.9996C25.125 25.5078 25.7176 24.077 26.7725 23.0221C27.8274 21.9672 29.2582 21.3746 30.75 21.3746ZM55.125 41.9996C55.125 42.4969 54.9275 42.9738 54.5758 43.3254C54.2242 43.6771 53.7473 43.8746 53.25 43.8746H47.625V49.4996C47.625 49.9969 47.4275 50.4738 47.0758 50.8254C46.7242 51.1771 46.2473 51.3746 45.75 51.3746C45.2527 51.3746 44.7758 51.1771 44.4242 50.8254C44.0725 50.4738 43.875 49.9969 43.875 49.4996V43.8746H38.25C37.7527 43.8746 37.2758 43.6771 36.9242 43.3254C36.5725 42.9738 36.375 42.4969 36.375 41.9996C36.375 41.5023 36.5725 41.0254 36.9242 40.6738C37.2758 40.3221 37.7527 40.1246 38.25 40.1246H43.875V34.4996C43.875 34.0023 44.0725 33.5254 44.4242 33.1738C44.7758 32.8221 45.2527 32.6246 45.75 32.6246C46.2473 32.6246 46.7242 32.8221 47.0758 33.1738C47.4275 33.5254 47.625 34.0023 47.625 34.4996V40.1246H53.25C53.7473 40.1246 54.2242 40.3221 54.5758 40.6738C54.9275 41.0254 55.125 41.5023 55.125 41.9996Z"
        fill="white" />
</svg>