<svg width="51" height="61" viewBox="0 0 51 61" fill="none" xmlns="http://www.w3.org/2000/svg">
    <path
        d="M39.3624 45.8597L30.5868 41.6407C30.4462 41.575 30.3618 41.4344 30.3618 41.275V24.9052C30.0993 24.7739 30.3618 57.1385 30.3618 24.9052L39.9343 29.8461C39.9343 29.6961 40.0749 29.9118 39.9343 29.8461V45.494C39.9343 45.7847 39.6249 45.9816 39.3624 45.8597Z"
        fill="white" />
    <path
        d="M30.3618 24.9052V41.275C30.3618 41.4344 30.4462 41.575 30.5868 41.6407L39.3624 45.8597C39.6249 45.9816 39.9343 45.7847 39.9343 45.494V29.8461M30.3618 24.9052C30.0993 24.7739 30.3618 57.1385 30.3618 24.9052ZM30.3618 24.9052L39.9343 29.8461M39.9343 29.8461C39.9343 29.6961 40.0749 29.9118 39.9343 29.8461Z"
        stroke="#13005A" stroke-miterlimit="10" />
    <path
        d="M40.8834 45.8319L49.659 41.6128C49.7997 41.5472 49.884 41.4066 49.884 41.2472V24.8774C49.884 57.1107 50.1465 24.7461 49.884 24.8774L40.3115 29.8371C40.1709 29.9027 40.3115 29.687 40.3115 29.8371V45.4662C40.3115 45.7662 40.6209 45.9631 40.8834 45.8319Z"
        fill="white" />
    <path
        d="M49.884 24.8774V41.2472C49.884 41.4066 49.7997 41.5472 49.659 41.6128L40.8834 45.8319C40.6209 45.9631 40.3115 45.7662 40.3115 45.4662V29.8371M49.884 24.8774C49.884 57.1107 50.1465 24.7461 49.884 24.8774ZM49.884 24.8774L40.3115 29.8371M40.3115 29.8371C40.1709 29.9027 40.3115 29.687 40.3115 29.8371Z"
        stroke="#13005A" stroke-miterlimit="10" />
    <path
        d="M49.4797 24.9246L40.4604 29.575C40.3666 29.6218 40.2448 29.6312 40.151 29.5843L31.0192 25.2247C30.7566 25.1028 30.7566 24.7184 31.0192 24.5965L40.1604 20.2368C40.2541 20.1899 40.3573 20.1899 40.451 20.2368L49.461 24.3152C49.7329 24.4183 49.7423 24.7934 49.4797 24.9246Z"
        fill="white" stroke="#13005A" stroke-miterlimit="10" />
    <path
        d="M25.0025 52.2363L16.227 47.9892C16.0863 47.9235 16.002 47.7829 16.002 47.6235L16.3489 13.8995C16.3489 13.5994 16.8176 14.0776 17.0801 14.2088L25.4807 18.8873C25.4807 18.7279 25.6213 18.9529 25.4807 18.8873L25.5745 51.8707C25.5745 52.1707 25.2651 52.3676 25.0025 52.2363Z"
        fill="white" />
    <path
        d="M25.4807 18.8873L17.0801 14.2088C16.8176 14.0776 16.3489 13.5994 16.3489 13.8995L16.002 47.6235C16.002 47.7829 16.0863 47.9235 16.227 47.9892L25.0025 52.2363C25.2651 52.3676 25.5745 52.1707 25.5745 51.8707L25.4807 18.8873ZM25.4807 18.8873C25.4807 18.7279 25.6213 18.9529 25.4807 18.8873Z"
        stroke="#13005A" stroke-miterlimit="10" />
    <path
        d="M26.3063 52.2363L35.0819 47.9892C35.2225 47.9235 35.3069 47.7829 35.3069 47.6235L34.96 13.8995C34.96 13.5994 34.4912 14.0776 34.2287 14.2088L25.8281 18.8873C25.6875 18.9529 25.8281 18.7279 25.8281 18.8873L25.7344 51.8707C25.7344 52.1707 26.0438 52.3676 26.3063 52.2363Z"
        fill="white" />
    <path
        d="M25.8281 18.8873L34.2287 14.2088C34.4912 14.0776 34.96 13.5994 34.96 13.8995L35.3069 47.6235C35.3069 47.7829 35.2225 47.9235 35.0819 47.9892L26.3063 52.2363C26.0438 52.3676 25.7344 52.1707 25.7344 51.8707L25.8281 18.8873ZM25.8281 18.8873C25.6875 18.9529 25.8281 18.7279 25.8281 18.8873Z"
        stroke="#13005A" stroke-miterlimit="10" />
    <path
        d="M34.8088 14.3963L25.7895 19.0466C25.6957 19.0935 25.5739 19.1029 25.4801 19.056L16.3483 14.6963C16.0857 14.5744 16.0857 14.19 16.3483 14.0682L25.4895 9.7085C25.5832 9.66162 25.6864 9.66162 25.7801 9.7085L34.7901 13.7869C35.0526 13.89 35.0714 14.265 34.8088 14.3963Z"
        fill="white" stroke="#13005A" stroke-miterlimit="10" />
    <path
        d="M10.0006 59.6517L1.22501 55.4327C1.08438 55.3671 1 55.2265 1 55.0671V6.46386C1 6.16384 1.3094 5.97634 1.57191 6.09823L10.3475 10.3173C10.4881 10.3829 10.5725 10.5235 10.5725 10.6829V59.2861C10.5725 59.5861 10.2631 59.783 10.0006 59.6517Z"
        fill="white" stroke="#13005A" stroke-miterlimit="10" />
    <path
        d="M11.1532 59.6517L19.9288 55.4327C20.0694 55.3671 20.1538 55.2265 20.1538 55.0671V6.46386C20.1538 6.16384 19.8444 5.97634 19.5819 6.09823L10.8063 10.3173C10.6656 10.3829 10.5813 10.5235 10.5813 10.6829V59.2861C10.5719 59.5861 10.8813 59.783 11.1532 59.6517Z"
        fill="white" stroke="#13005A" stroke-miterlimit="10" />
    <path
        d="M19.8079 5.72297L10.7885 10.3733C10.6948 10.4201 10.5729 10.4295 10.4791 10.3826L1.34728 6.02299C1.08476 5.90111 1.08476 5.5167 1.34728 5.39481L10.4885 1.03516C10.5823 0.98828 10.6854 0.98828 10.7791 1.03516L19.7891 5.11356C20.061 5.21669 20.0704 5.59171 19.8079 5.72297Z"
        fill="white" stroke="#13005A" stroke-miterlimit="10" />
</svg>
    