<svg width="573" height="187" viewBox="0 0 573 187" fill="none" xmlns="http://www.w3.org/2000/svg">
    <path
        d="M230.943 27.3817C251.127 27.3817 263.864 31.4008 272.759 39.8231C279.763 46.7087 284.935 56.7268 284.935 70.4684C284.935 87.2244 278.049 100.818 267.026 109.122C256.151 117.279 242.262 120.441 224.649 120.441H191.137V116.422C203.46 115.269 204.021 114.264 204.021 102.532V45.4084C204.021 33.1148 202.307 32.5237 191.137 31.3712V27.3522H230.943V27.3817ZM216.463 101.409C216.463 112.137 221.043 115.151 231.771 115.151C257.54 115.151 270.72 97.538 270.72 72.478C270.72 56.8745 265.43 44.9946 254.112 38.109C247.522 33.9718 239.218 32.3759 229.643 32.3759C223.201 32.3759 219.773 33.2329 218.354 34.3855C217.054 35.2425 216.492 36.8088 216.492 42.3941V101.409H216.463Z"
        fill="white" />
    <path
        d="M335.262 27.3817C345.428 27.3817 353.584 29.2435 359.465 33.5286C365.05 37.6658 368.922 44.4037 368.922 53.8603C368.922 74.7535 351.043 83.2054 337.419 83.2054C335.853 83.2054 334.405 83.0576 333.548 82.9394L323.678 80.3684V102.71C323.678 114.737 324.682 115.003 337.862 116.451V120.47H298.352V116.451C310.645 115.181 311.236 114.294 311.236 102.414V45.5857C311.236 32.8488 309.67 32.5534 298.352 31.4008V27.3817H335.262ZM323.648 75.3445C325.362 76.2016 329.233 77.2063 334.08 77.2063C343.684 77.2063 355.564 72.3303 355.564 54.3036C355.564 38.5524 345.25 32.2578 333.223 32.2578C329.086 32.2578 326.071 32.9671 325.214 33.9718C324.062 34.9766 323.648 36.6906 323.648 40.5619V75.3445Z"
        fill="white" />
    <path
        d="M476.668 81.3734C467.803 82.5259 467.211 83.3828 467.211 91.8347V103.862C467.211 108.857 467.359 113.585 468.068 117.456C459.203 119.466 447.589 122.598 435.561 122.598C403.054 122.598 383.313 102.414 383.313 73.6307C383.313 43.4286 407.93 25.402 436.566 25.402C451.165 25.402 461.892 28.2685 466.354 28.9777C466.65 34.2675 467.359 43.0149 468.512 52.0282L464.227 52.8852C460.799 40.7098 456.632 35.5678 447.619 32.5535C444.338 31.401 438.457 30.6917 434.32 30.6917C412.422 30.6917 398.237 45.7337 398.237 71.9167C398.237 94.6717 409.969 117.279 437.748 117.279C442.624 117.279 447.057 116.274 449.924 114.856C452.938 113.142 454.8 111.575 454.8 105.695V93.9624C454.8 83.501 453.647 82.3485 439.905 81.3438V77.2065H476.698V81.3734H476.668Z"
        fill="white" />
    <path
        d="M572.238 121.593C570.376 121.593 568.81 121.446 566.948 121.298C556.487 120.589 550.901 117.87 544.607 109.004C539.317 101.705 534.146 92.6915 529.565 85.3626C526.698 80.7821 524.837 79.9251 517.537 79.9251H512.513V102.414C512.513 114.59 514.08 115.299 525.546 116.451V120.47H487.306V116.451C499.186 115.181 500.19 114.59 500.19 102.414V45.2902C500.19 33.1148 498.624 32.7011 487.306 31.4008V27.3817H523.802C534.234 27.3817 541.268 28.682 546.705 32.2578C552.586 35.9813 556.457 42.4237 556.457 51.1711C556.457 63.4942 548.596 71.2073 537.987 75.7878C540.558 80.2206 546.705 89.825 551.02 96.2673C556.309 103.862 559.028 107.438 562.338 111.014C566.209 115.181 569.49 116.747 572.799 117.604L572.238 121.593ZM519.429 75.0786C526.876 75.0786 531.604 73.9261 535.18 70.9413C540.765 66.8041 543.041 61.0709 543.041 53.3283C543.041 38.0204 532.875 32.4352 521.852 32.4352C517.715 32.4352 515.262 32.9966 514.257 33.8536C512.957 34.8584 512.543 36.2769 512.543 40.0005V75.0786H519.429Z"
        fill="white" />
    <path
        d="M193.532 161.725C193.62 166.689 196.841 168.728 200.535 168.728C203.195 168.728 204.791 168.285 206.209 167.694L206.83 170.324C205.53 170.915 203.284 171.565 200.033 171.565C193.738 171.565 189.985 167.487 189.985 161.4C189.985 155.312 193.62 150.524 199.59 150.524C206.268 150.524 208.042 156.317 208.042 160.011C208.042 160.749 207.953 161.34 207.923 161.725H193.532ZM204.436 159.094C204.466 156.76 203.461 153.125 199.294 153.125C195.541 153.125 193.886 156.553 193.591 159.094H204.436Z"
        fill="white" />
    <path
        d="M387.449 144.614C387.508 145.914 386.444 146.949 384.789 146.949C383.312 146.949 382.277 145.914 382.277 144.614C382.277 143.255 383.371 142.22 384.878 142.22C386.474 142.22 387.449 143.255 387.449 144.614ZM382.839 171.536V150.495H387.006V171.536H382.839Z"
        fill="white" />
    <path
        d="M121.925 142.399L94.2645 129.1C93.8212 128.893 93.5553 128.45 93.5553 127.948V76.3501C92.7278 75.9363 93.5553 177.95 93.5553 76.3501L123.728 91.9239C123.728 91.4511 124.171 92.1308 123.728 91.9239V141.246C123.728 142.162 122.753 142.783 121.925 142.399Z"
        fill="white" />
    <path
        d="M93.5553 76.3501V127.948C93.5553 128.45 93.8212 128.893 94.2645 129.1L121.925 142.399C122.753 142.783 123.728 142.162 123.728 141.246V91.9239M93.5553 76.3501C92.7278 75.9363 93.5553 177.95 93.5553 76.3501ZM93.5553 76.3501L123.728 91.9239M123.728 91.9239C123.728 91.4511 124.171 92.1308 123.728 91.9239Z"
        stroke="black" stroke-miterlimit="10" />
    <path
        d="M126.714 142.31L154.374 129.012C154.817 128.805 155.083 128.361 155.083 127.859V76.2614C155.083 177.861 155.911 75.8477 155.083 76.2614L124.911 91.8945C124.468 92.1013 124.911 91.4216 124.911 91.8945V141.157C124.911 142.103 125.886 142.724 126.714 142.31Z"
        fill="white" />
    <path
        d="M155.083 76.2614V127.859C155.083 128.361 154.817 128.805 154.374 129.012L126.714 142.31C125.886 142.724 124.911 142.103 124.911 141.157V91.8945M155.083 76.2614C155.083 177.861 155.911 75.8477 155.083 76.2614ZM155.083 76.2614L124.911 91.8945M124.911 91.8945C124.468 92.1013 124.911 91.4216 124.911 91.8945Z"
        stroke="black" stroke-miterlimit="10" />
    <path
        d="M153.811 76.4092L125.382 91.067C125.087 91.2148 124.703 91.2443 124.407 91.0965L95.6235 77.3549C94.7961 76.9707 94.7961 75.7591 95.6235 75.3749L124.437 61.6332C124.732 61.4855 125.057 61.4855 125.353 61.6332L153.752 74.4883C154.609 74.8134 154.639 75.9955 153.811 76.4092Z"
        fill="white" stroke="black" stroke-miterlimit="10" />
    <path
        d="M76.6531 162.494L48.9924 149.107C48.5492 148.9 48.2832 148.457 48.2832 147.955L49.3766 41.6562C49.3766 40.7105 50.8542 42.2176 51.6817 42.6314L78.1602 57.3778C78.1602 56.8754 78.6035 57.5846 78.1602 57.3778L78.4557 161.342C78.4557 162.287 77.4805 162.908 76.6531 162.494Z"
        fill="white" />
    <path
        d="M78.1602 57.3778L51.6817 42.6314C50.8542 42.2176 49.3766 40.7105 49.3766 41.6562L48.2832 147.955C48.2832 148.457 48.5492 148.9 48.9924 149.107L76.6531 162.494C77.4805 162.908 78.4557 162.287 78.4557 161.342L78.1602 57.3778ZM78.1602 57.3778C78.1602 56.8754 78.6035 57.5846 78.1602 57.3778Z"
        stroke="black" stroke-miterlimit="10" />
    <path
        d="M80.7607 162.494L108.421 149.107C108.865 148.9 109.131 148.457 109.131 147.955L108.037 41.6562C108.037 40.7105 106.56 42.2176 105.732 42.6314L79.2535 57.3778C78.8102 57.5846 79.2535 56.8754 79.2535 57.3778L78.958 161.342C78.958 162.287 79.9332 162.908 80.7607 162.494Z"
        fill="white" />
    <path
        d="M79.2535 57.3778L105.732 42.6314C106.56 42.2176 108.037 40.7105 108.037 41.6562L109.131 147.955C109.131 148.457 108.865 148.9 108.421 149.107L80.7607 162.494C79.9332 162.908 78.958 162.287 78.958 161.342L79.2535 57.3778ZM79.2535 57.3778C78.8102 57.5846 79.2535 56.8754 79.2535 57.3778Z"
        stroke="black" stroke-miterlimit="10" />
    <path
        d="M107.565 43.2225L79.1362 57.8802C78.8407 58.028 78.4565 58.0576 78.161 57.9098L49.3774 44.1682C48.55 43.784 48.55 42.5723 49.3774 42.1881L78.1906 28.4465C78.4861 28.2988 78.8112 28.2988 79.1067 28.4465L107.506 41.3016C108.334 41.6267 108.393 42.8088 107.565 43.2225Z"
        fill="white" stroke="black" stroke-miterlimit="10" />
    <path
        d="M29.3699 185.869L1.70925 172.571C1.26597 172.364 1 171.921 1 171.418V18.2211C1 17.2754 1.97521 16.6844 2.80267 17.0686L30.4633 30.367C30.9066 30.5738 31.1725 31.0171 31.1725 31.5194V184.717C31.1725 185.662 30.1973 186.283 29.3699 185.869Z"
        fill="white" stroke="black" stroke-miterlimit="10" />
    <path
        d="M33.0045 185.869L60.6651 172.571C61.1084 172.364 61.3744 171.921 61.3744 171.419V18.2212C61.3744 17.2755 60.3991 16.6845 59.5717 17.0687L31.9111 30.3671C31.4678 30.574 31.2018 31.0172 31.2018 31.5196V184.717C31.1723 185.663 32.1475 186.283 33.0045 185.869Z"
        fill="white" stroke="black" stroke-miterlimit="10" />
    <path
        d="M60.282 15.8868L31.853 30.5445C31.5575 30.6923 31.1733 30.7219 30.8778 30.5741L2.09422 16.8325C1.26677 16.4483 1.26677 15.2366 2.09422 14.8525L30.9074 1.11082C31.2029 0.96306 31.528 0.96306 31.8235 1.11082L60.2229 13.9659C61.0799 14.291 61.1094 15.4731 60.282 15.8868Z"
        fill="white" stroke="black" stroke-miterlimit="10" />
    <path
        d="M285.498 167.428C286.739 168.138 288.896 168.876 290.994 168.876C294.009 168.876 295.427 167.547 295.427 165.921C295.427 164.207 294.245 163.262 291.172 162.257C287.064 160.986 285.114 159.006 285.114 156.612C285.114 153.391 288.098 150.761 293.004 150.761C295.309 150.761 297.348 151.323 298.619 152.002L297.584 154.632C296.698 154.13 295.043 153.48 292.915 153.48C290.462 153.48 289.074 154.721 289.074 156.199C289.074 157.853 290.433 158.592 293.418 159.567C297.378 160.897 299.417 162.611 299.417 165.567C299.417 169.054 296.284 171.536 290.847 171.536C288.335 171.536 286.03 171.004 284.404 170.177L285.498 167.428Z"
        fill="white" />
</svg>
    