<svg width="24" height="24" viewBox="0 0 24 24" fill="none" xmlns="http://www.w3.org/2000/svg">
    <path
        d="M9.68396 9.70312C9.27656 9.70312 8.93973 9.35922 9.04814 8.96651C9.1805 8.48706 9.42845 8.07635 9.79199 7.73438C10.3343 7.22852 11.084 6.97559 12.041 6.97559C12.9342 6.97559 13.6611 7.21484 14.2217 7.69336C14.7822 8.16732 15.0625 8.77344 15.0625 9.51172C15.0625 10.5007 14.584 11.2822 13.627 11.8564C13.1895 12.1162 12.891 12.3577 12.7314 12.5811C12.5719 12.7998 12.4922 13.0869 12.4922 13.4424C12.4922 13.6727 12.3055 13.8594 12.0752 13.8594H11.6241C11.3209 13.8594 11.0741 13.6156 11.0703 13.3125C11.0521 12.8385 11.1478 12.4352 11.3574 12.1025C11.5716 11.7699 11.9157 11.46 12.3896 11.1729C12.8089 10.9222 13.1006 10.6807 13.2646 10.4482C13.4287 10.2158 13.5107 9.92415 13.5107 9.57324C13.5107 9.18132 13.3695 8.86003 13.0869 8.60938C12.8044 8.35872 12.4307 8.2334 11.9658 8.2334C11.4964 8.2334 11.1182 8.36556 10.8311 8.62988C10.6978 8.75258 10.592 8.8954 10.5137 9.05835C10.3506 9.39784 10.0606 9.70312 9.68396 9.70312ZM11.7949 17.0244C11.5443 17.0244 11.3324 16.9401 11.1592 16.7715C10.986 16.6029 10.8994 16.3932 10.8994 16.1426C10.8994 15.8919 10.986 15.6823 11.1592 15.5137C11.3324 15.3451 11.5443 15.2607 11.7949 15.2607C12.0501 15.2607 12.2643 15.3451 12.4375 15.5137C12.6107 15.6823 12.6973 15.8919 12.6973 16.1426C12.6973 16.3932 12.6107 16.6029 12.4375 16.7715C12.2643 16.9401 12.0501 17.0244 11.7949 17.0244Z"
        fill="#BCBCBC" />
    <circle cx="12" cy="12" r="9.25" stroke="#BCBCBC" stroke-width="1.5" />
</svg>