<svg width="20" height="21" viewBox="0 0 20 21" fill="none" xmlns="http://www.w3.org/2000/svg">
    <path
        d="M19.6535 16.7497L15.4878 12.5808C14.6851 11.7774 13.383 11.7772 12.58 12.5802C11.7772 13.383 11.7772 14.6846 12.58 15.4874L16.7499 19.6575C17.2114 20.119 17.971 20.119 18.4324 19.6575L19.6535 18.4364C20.115 17.9708 20.115 17.2071 19.6535 16.7497Z"
        fill="#02B97D" />
    <path
        d="M10.4959 12.0182C10.9166 12.4389 11.5986 12.4389 12.0192 12.0182C12.4399 11.5976 12.4399 10.9156 12.0192 10.495L11.8354 10.3111C11.3779 9.85363 11.3295 9.13946 11.5942 8.54919C12.5947 6.31798 12.1821 3.60473 10.351 1.77349C7.98643 -0.591163 4.14355 -0.591163 1.77493 1.77349C-0.593685 4.13814 -0.589602 7.98121 1.77493 10.3499C3.60608 12.1812 6.31918 12.5938 8.55027 11.5932C9.14052 11.3285 9.85469 11.377 10.3121 11.8344L10.4959 12.0182ZM2.95107 9.15741C1.23587 7.44212 1.23587 4.66089 2.95107 2.94969C4.66628 1.2344 7.44736 1.2344 9.15849 2.94969C10.8737 4.66498 10.8737 7.4462 9.15849 9.15741C7.44736 10.8727 4.66628 10.8727 2.95107 9.15741Z"
        fill="#02B97D" />
</svg>
    