<svg width="70" height="70" viewBox="0 0 70 70" fill="none" xmlns="http://www.w3.org/2000/svg">
    <circle cx="35" cy="35" r="35" fill="#03C988" />
    <path
        d="M16.9398 51.8392H21.6544C22.2616 51.8392 22.7544 51.3475 22.7544 50.7392V42.6938C22.7544 42.0855 22.2616 41.5938 21.6544 41.5938H16.9398C16.3326 41.5938 15.8398 42.0855 15.8398 42.6938V50.7392C15.8398 51.3464 16.3326 51.8392 16.9398 51.8392ZM18.0398 43.7927H20.5544V49.6381H18.0398V43.7927Z"
        fill="white" />
    <path
        d="M31.0841 51.8395C31.6913 51.8395 32.1841 51.3478 32.1841 50.7395V28.0355C32.1841 27.4272 31.6913 26.9355 31.0841 26.9355H26.3695C25.7623 26.9355 25.2695 27.4272 25.2695 28.0355V50.7395C25.2695 51.3478 25.7623 51.8395 26.3695 51.8395H31.0841ZM27.4695 29.1355H29.9841V49.6395H27.4695V29.1355Z"
        fill="white" />
    <path
        d="M40.5108 51.8394C41.118 51.8394 41.6108 51.3477 41.6108 50.7394V35.5561C41.6108 34.9478 41.118 34.4561 40.5108 34.4561H35.7973C35.1901 34.4561 34.6973 34.9478 34.6973 35.5561V50.7394C34.6973 51.3477 35.1901 51.8394 35.7973 51.8394H40.5108ZM36.8973 36.6561H39.4119V49.6394H36.8973V36.6561Z"
        fill="white" />
    <path
        d="M44.127 17.7396V50.7396C44.127 51.3479 44.6198 51.8396 45.227 51.8396H49.9416C50.5488 51.8396 51.0416 51.3479 51.0416 50.7396V17.7396C51.0416 17.1313 50.5488 16.6396 49.9416 16.6396H45.227C44.6198 16.6396 44.127 17.1313 44.127 17.7396ZM46.327 18.8396H48.8416V49.6396H46.327V18.8396Z"
        fill="white" />
</svg>