<svg width="848" height="1024" viewBox="0 0 848 1024" fill="none" xmlns="http://www.w3.org/2000/svg">
    <g style="mix-blend-mode:darken">
        <rect x="201.059" y="-2.09094" width="646.941" height="785.656"
            fill="url(#paint0_linear_0_1)" />
    </g>
    <g style="mix-blend-mode:darken">
        <path d="M0.799805 390L201.072 -3.17554L201.072 783.176L0.799805 390Z"
            fill="url(#paint1_linear_0_1)" />
    </g>
    <path d="M801.438 609L623.208 261.93L980.34 261.93L801.438 609Z" fill="url(#paint2_linear_0_1)" />
    <path
        d="M822.681 650.447L622.114 1038.4L222.096 1037.82L22.6439 649.299L223.21 261.348L623.229 261.922L822.681 650.447Z"
        fill="url(#paint3_linear_0_1)" />
    <rect x="885.256" y="433" width="407" height="860" transform="rotate(27.5865 885.256 433)"
        fill="#03C988" />
    <g filter="url(#filter0_d_0_1)">
        <path
            d="M341.798 641.243L341.794 641.239C332.87 632.789 320.126 628.763 300.056 628.73V628.7H299.806H260H259.75V628.95V632.969V633.195L259.974 633.218C262.77 633.506 264.955 633.758 266.668 634.163C268.379 634.568 269.589 635.119 270.454 635.986C271.318 636.852 271.866 638.06 272.197 639.834C272.527 641.612 272.635 643.934 272.635 647.006V704.13C272.635 707.066 272.599 709.311 272.357 711.053C272.115 712.793 271.67 713.997 270.878 714.875C270.086 715.752 268.916 716.336 267.152 716.77C265.387 717.205 263.059 717.482 259.977 717.771L259.75 717.792V718.02V722.039V722.289H260H293.512C311.152 722.289 325.103 719.122 336.039 710.92L336.04 710.92C347.131 702.564 354.048 688.893 354.048 672.066C354.048 658.255 348.848 648.174 341.798 641.243ZM322.842 639.919L322.845 639.921C334.068 646.748 339.333 658.531 339.333 674.076C339.333 686.565 336.049 697.169 329.583 704.646C323.121 712.119 313.458 716.499 300.634 716.499C295.279 716.499 291.532 715.743 289.118 713.71C286.754 711.718 285.612 708.449 285.577 703.257H285.606V703.007V643.992C285.606 641.201 285.747 639.44 286.041 638.276C286.332 637.128 286.766 636.58 287.355 636.192L287.365 636.185L287.375 636.177C288.037 635.639 289.201 635.147 291.026 634.792C292.844 634.438 295.295 634.224 298.506 634.224C308.057 634.224 316.308 635.816 322.842 639.919Z"
            fill="url(#paint4_radial_0_1)" stroke="black" stroke-width="0.5" />
        <path
            d="M428.477 634.926L428.475 634.924C422.534 630.595 414.316 628.73 404.125 628.73H367.215H366.965V628.98V632.999V633.225L367.19 633.247C370.024 633.536 372.228 633.769 373.948 634.154C375.667 634.539 376.87 635.068 377.725 635.924C378.577 636.778 379.113 637.989 379.432 639.799C379.751 641.613 379.849 644 379.849 647.184V704.012C379.849 706.985 379.812 709.25 379.567 711.004C379.323 712.755 378.876 713.962 378.082 714.842C377.287 715.721 376.116 716.306 374.354 716.748C372.589 717.19 370.264 717.483 367.189 717.801L366.965 717.824V718.049V722.068V722.318H367.215H406.726H406.976V722.068V718.049V717.825L406.753 717.801C403.454 717.438 400.934 717.151 399.001 716.738C397.068 716.325 395.76 715.792 394.86 714.962C393.967 714.138 393.445 712.992 393.15 711.283C392.854 709.568 392.791 707.317 392.791 704.308V682.29L402.348 684.779L402.362 684.783L402.377 684.785C403.242 684.904 404.702 685.053 406.282 685.053C413.14 685.053 421.071 682.927 427.294 678.164C433.526 673.395 438.035 665.986 438.035 655.458C438.035 645.926 434.129 639.112 428.477 634.926ZM394.242 635.758L394.256 635.746L394.268 635.732C394.448 635.521 394.759 635.307 395.21 635.106C395.658 634.907 396.227 634.729 396.905 634.58C398.261 634.282 400.03 634.106 402.086 634.106C408.06 634.106 413.58 635.669 417.603 639.161C421.62 642.647 424.177 648.084 424.177 655.901C424.177 664.855 421.23 670.505 417.127 673.921C413.015 677.344 407.708 678.554 402.943 678.554C398.252 678.554 394.498 677.606 392.761 676.786V642.16C392.761 638.276 393.185 636.679 394.242 635.758Z"
            fill="url(#paint5_radial_0_1)" stroke="black" stroke-width="0.5" />
        <path
            d="M536.987 719.298L537.221 719.245L537.178 719.009C536.473 715.162 536.325 710.454 536.325 705.46V693.433C536.325 691.318 536.362 689.697 536.553 688.432C536.743 687.169 537.082 686.287 537.665 685.631C538.249 684.973 539.103 684.512 540.383 684.144C541.661 683.776 543.338 683.509 545.548 683.221H545.561H545.811V682.971V678.804V678.554H545.561H508.769H508.519V678.804V682.942V683.174L508.751 683.191C512.186 683.442 514.82 683.702 516.844 684.111C518.868 684.521 520.251 685.075 521.206 685.894C522.154 686.708 522.707 687.806 523.023 689.366C523.34 690.934 523.413 692.944 523.413 695.56V707.292C523.413 710.21 522.95 712.018 522.144 713.303C521.338 714.586 520.169 715.38 518.67 716.233C515.845 717.629 511.455 718.627 506.611 718.627C492.799 718.627 482.996 713.011 476.639 704.578C470.274 696.137 467.35 684.854 467.35 673.515C467.35 660.467 470.885 650.226 477.117 643.25C483.346 636.278 492.295 632.54 503.183 632.54C507.306 632.54 513.155 633.248 516.399 634.387L516.403 634.388C520.877 635.885 524.127 637.901 526.687 641.04C529.252 644.185 531.139 648.476 532.849 654.551L532.912 654.774L533.139 654.728L537.424 653.871L537.653 653.826L537.623 653.594C536.471 644.587 535.763 635.846 535.467 630.562L535.456 630.36L535.257 630.329C534.374 630.188 533.24 629.962 531.875 629.69C526.382 628.594 517.144 626.75 505.429 626.75C476.695 626.75 451.927 644.852 451.927 675.229C451.927 689.679 456.883 701.989 465.937 710.687C474.991 719.383 488.119 724.446 504.425 724.446C514.925 724.446 525.111 722.065 533.412 720.125C534.647 719.837 535.841 719.558 536.987 719.298Z"
            fill="url(#paint6_radial_0_1)" stroke="black" stroke-width="0.5" />
        <path
            d="M641.319 723.441H641.101C639.457 723.441 638.04 723.327 636.462 723.199C636.243 723.181 636.02 723.163 635.793 723.145C630.546 722.789 626.495 721.928 622.96 720.028C619.424 718.127 616.427 715.198 613.267 710.748L641.319 723.441ZM641.319 723.441L641.349 723.226L641.91 719.237L641.941 719.016L641.725 718.96C638.461 718.114 635.223 716.573 631.385 712.442L641.319 723.441ZM603.894 672.338L603.888 672.343L603.883 672.347C600.374 675.276 595.718 676.426 588.292 676.426H581.656V641.598C581.656 639.74 581.76 638.484 582.016 637.573C582.268 636.677 582.667 636.118 583.273 635.649L583.273 635.65L583.283 635.642C583.736 635.255 584.55 634.911 585.791 634.666C587.026 634.423 588.656 634.283 590.715 634.283C596.188 634.283 601.421 635.67 605.282 638.93C609.135 642.184 611.654 647.332 611.654 654.926C611.654 662.612 609.4 668.26 603.894 672.338Z"
            fill="url(#paint7_radial_0_1)" stroke="black" stroke-width="0.5" />
        <path
            d="M495.708 557.849L495.715 557.852C496.873 558.39 498.228 557.527 498.228 556.246V507.337C498.257 507.312 498.286 507.282 498.312 507.248C498.449 507.069 498.43 506.876 498.413 506.791C498.393 506.693 498.352 506.611 498.313 506.551C498.273 506.49 498.215 506.421 498.137 506.365C498.069 506.316 497.912 506.225 497.705 506.261C497.665 506.268 497.628 506.278 497.594 506.292L467.785 490.906L467.555 491.35L467.779 490.903C467.729 490.881 467.62 490.853 467.559 490.849C467.498 490.851 467.385 490.876 467.333 490.897C467.216 490.952 467.151 491.037 467.124 491.076C467.07 491.155 467.046 491.235 467.037 491.267C467.014 491.348 466.998 491.445 466.986 491.539C466.961 491.735 466.94 492.018 466.92 492.37C466.88 493.078 466.846 494.11 466.818 495.387C466.761 497.943 466.726 501.501 466.706 505.46C466.667 513.381 466.693 522.921 466.745 529.299C466.771 532.485 466.803 534.889 466.837 535.906C466.846 536.151 466.855 536.341 466.867 536.438C466.868 536.452 466.871 536.471 466.875 536.491L466.875 536.492C466.877 536.505 466.886 536.55 466.907 536.602C466.922 536.635 466.977 536.721 467.021 536.77C467.031 536.778 467.042 536.785 467.055 536.792V542.948C467.055 543.628 467.42 544.256 468.05 544.552C468.051 544.552 468.052 544.553 468.053 544.553L495.708 557.849ZM498.228 506.912C498.228 506.912 498.228 506.914 498.228 506.916L498.228 506.912ZM497.953 506.477C497.953 506.477 497.952 506.476 497.95 506.475C497.952 506.476 497.953 506.477 497.953 506.477ZM466.885 536.315C466.884 536.319 466.884 536.321 466.884 536.321C466.884 536.321 466.884 536.319 466.885 536.315Z"
            fill="url(#paint8_radial_0_1)" stroke="black" stroke-miterlimit="10" />
        <path
            d="M498.904 508.319L498.904 508.319L498.91 508.316L527.615 493.499C527.616 493.498 527.617 493.498 527.618 493.497C528.803 492.901 528.815 491.152 527.525 490.648L498.865 477.66C498.43 477.446 497.941 477.447 497.506 477.663L468.416 491.553C468.415 491.553 468.414 491.553 468.413 491.554C467.196 492.122 467.196 493.891 468.413 494.46C468.414 494.46 468.415 494.461 468.416 494.461L497.476 508.351C497.943 508.582 498.497 508.523 498.904 508.319Z"
            fill="url(#paint9_radial_0_1)" stroke="black" stroke-miterlimit="10" />
        <path
            d="M526.799 491.833L497.799 507.16C497.308 507.42 497 507.93 497 508.486V556.978C497 558.057 498.105 558.783 499.095 558.355L528.095 545.821C528.644 545.584 529 545.043 529 544.444V493.16C529 492.03 527.798 491.305 526.799 491.833Z"
            fill="url(#paint10_radial_0_1)" stroke="black" />
        <path
            d="M453.956 576.34L453.661 472.786C453.695 472.757 453.727 472.723 453.756 472.682C453.879 472.508 453.862 472.325 453.846 472.242C453.828 472.146 453.789 472.064 453.75 472.002C453.712 471.94 453.654 471.868 453.574 471.809C453.504 471.757 453.337 471.659 453.118 471.706C453.087 471.713 453.057 471.722 453.029 471.732L426.925 457.194L426.915 457.189L426.905 457.184C426.74 457.101 426.524 456.954 426.266 456.766C426.209 456.725 426.15 456.682 426.09 456.638C425.893 456.494 425.684 456.341 425.493 456.216C425.367 456.133 425.235 456.053 425.107 455.991C424.986 455.932 424.833 455.87 424.669 455.854C424.492 455.836 424.246 455.871 424.064 456.082C423.906 456.264 423.877 456.489 423.877 456.653C423.877 456.654 423.877 456.655 423.877 456.656L422.783 562.949H422.783V562.954C422.783 563.635 423.147 564.262 423.777 564.558C423.779 564.559 423.78 564.559 423.781 564.56L451.429 577.941C451.43 577.942 451.431 577.942 451.432 577.943C452.608 578.528 453.956 577.639 453.956 576.341L453.956 576.34ZM453.384 471.93C453.384 471.93 453.384 471.93 453.383 471.929L453.383 471.929C453.383 471.929 453.384 471.93 453.384 471.93ZM453.661 472.361C453.661 472.361 453.661 472.362 453.661 472.364L453.661 472.361Z"
            fill="url(#paint11_radial_0_1)" stroke="black" stroke-miterlimit="10" />
        <path
            d="M479.488 457.194L453.383 471.732C453.356 471.722 453.326 471.713 453.295 471.706C453.075 471.659 452.909 471.757 452.839 471.809C452.759 471.868 452.701 471.94 452.662 472.002C452.623 472.064 452.585 472.146 452.567 472.242C452.551 472.325 452.534 472.508 452.657 472.682C452.686 472.723 452.718 472.757 452.751 472.786L452.457 576.34V576.341C452.457 577.639 453.805 578.528 454.98 577.943C454.981 577.942 454.982 577.942 454.983 577.941L482.632 564.56C482.633 564.559 482.634 564.559 482.635 564.558C483.266 564.262 483.63 563.635 483.63 562.954L483.63 562.949L482.536 456.656C482.536 456.655 482.536 456.654 482.536 456.653C482.536 456.489 482.507 456.264 482.349 456.082C482.166 455.871 481.92 455.836 481.744 455.854C481.58 455.87 481.426 455.932 481.306 455.991C481.178 456.053 481.046 456.133 480.92 456.216C480.729 456.341 480.52 456.494 480.323 456.638C480.263 456.682 480.204 456.725 480.147 456.766C479.889 456.954 479.672 457.101 479.507 457.184L479.498 457.189L479.488 457.194ZM453.029 471.93C453.029 471.93 453.029 471.929 453.03 471.929L453.03 471.929C453.029 471.93 453.029 471.93 453.029 471.93ZM452.752 472.361C452.752 472.361 452.752 472.362 452.752 472.364L452.752 472.361Z"
            fill="url(#paint12_radial_0_1)" stroke="black" stroke-miterlimit="10" />
        <path
            d="M453.359 473.327L453.359 473.327L453.364 473.324L481.788 458.669C481.789 458.669 481.79 458.668 481.791 458.668C482.989 458.066 482.928 456.335 481.701 455.841L453.32 442.994C452.887 442.782 452.403 442.782 451.971 442.997L423.166 456.734C423.165 456.735 423.164 456.735 423.163 456.736C421.953 457.3 421.953 459.056 423.163 459.62C423.164 459.621 423.165 459.621 423.166 459.621L451.941 473.359C452.404 473.588 452.954 473.53 453.359 473.327Z"
            fill="url(#paint13_radial_0_1)" stroke="black" stroke-miterlimit="10" />
        <path
            d="M377.019 431.618L377.019 431.618L377.013 431.615C375.863 431.081 374.5 431.901 374.5 433.221V586.418C374.5 587.099 374.864 587.726 375.494 588.022C375.495 588.023 375.497 588.023 375.498 588.024L403.146 601.316C403.148 601.317 403.149 601.318 403.15 601.318C404.326 601.902 405.673 601.014 405.673 599.717V446.519C405.673 445.839 405.308 445.211 404.678 444.915L377.019 431.618Z"
            fill="url(#paint14_radial_0_1)" stroke="black" stroke-miterlimit="10" />
        <path
            d="M433.361 431.615L433.361 431.615L433.355 431.618L405.697 444.915C405.066 445.211 404.702 445.839 404.702 446.519V599.71C404.666 601.036 406.038 601.89 407.221 601.32C407.221 601.32 407.222 601.32 407.222 601.32L434.877 588.024C434.878 588.023 434.879 588.023 434.88 588.022C435.51 587.726 435.874 587.099 435.874 586.418V433.221C435.874 431.901 434.511 431.081 433.361 431.615Z"
            fill="url(#paint15_radial_0_1)" stroke="black" stroke-miterlimit="10" />
        <path
            d="M405.811 447.005L405.811 447.005L405.817 447.002L434.492 432.845C434.493 432.845 434.494 432.844 434.495 432.844C435.681 432.273 435.724 430.537 434.452 430.015L406.302 416.676C405.873 416.456 405.388 416.448 404.952 416.655L375.912 429.887C375.912 429.888 375.911 429.888 375.91 429.889C374.69 430.432 374.66 432.187 375.859 432.773C375.86 432.773 375.861 432.774 375.862 432.774L404.393 447.012C404.852 447.249 405.403 447.2 405.811 447.005Z"
            fill="url(#paint16_radial_0_1)" stroke="black" stroke-miterlimit="10" />
        <path
            d="M354.862 762.681C353.689 761.643 352.897 760.044 352.804 757.754H366.938H367.17L367.187 757.524C367.195 757.43 367.206 757.318 367.219 757.192C367.256 756.831 367.306 756.346 367.306 755.79C367.306 753.911 366.856 751.486 365.543 749.523C364.22 747.546 362.03 746.054 358.604 746.054C355.547 746.054 353.076 747.283 351.373 749.297C349.673 751.308 348.75 754.087 348.75 757.179C348.75 760.275 349.705 762.883 351.484 764.719C353.264 766.556 355.845 767.595 359.048 767.595C362.332 767.595 364.613 766.938 365.948 766.332L366.135 766.247L366.088 766.047L365.467 763.416L365.4 763.13L365.128 763.243C363.739 763.822 362.176 764.258 359.55 764.258C357.747 764.258 356.083 763.76 354.862 762.681ZM358.309 749.155C360.305 749.155 361.519 750.018 362.243 751.149C362.924 752.213 363.179 753.531 363.2 754.624H352.891C353.07 753.454 353.538 752.137 354.357 751.091C355.237 749.967 356.52 749.155 358.309 749.155Z"
            fill="url(#paint17_radial_0_1)" stroke="black" stroke-width="0.5" />
        <path
            d="M541.603 767.315V767.565H541.853H546.02H546.27V767.315V746.275V746.025H546.02H541.853H541.603V746.275V767.315ZM543.804 742.978C545.563 742.978 546.777 741.862 546.714 740.388C546.712 739.649 546.445 738.986 545.95 738.507C545.454 738.027 544.746 737.75 543.893 737.75C542.265 737.75 541.042 738.879 541.042 740.394C541.042 741.844 542.2 742.978 543.804 742.978Z"
            fill="url(#paint18_radial_0_1)" stroke="black" stroke-width="0.5" />
        <path
            d="M444.636 762.991L444.386 762.848L444.28 763.115L443.187 765.864L443.102 766.076L443.306 766.179C444.973 767.028 447.318 767.566 449.861 767.566C452.615 767.566 454.814 766.937 456.332 765.841C457.857 764.74 458.681 763.174 458.681 761.346C458.681 759.801 458.144 758.568 457.09 757.557C456.046 756.555 454.505 755.779 452.512 755.11L452.51 755.109C451.015 754.621 449.964 754.202 449.287 753.715C448.953 753.474 448.718 753.222 448.566 752.945C448.415 752.67 448.338 752.356 448.338 751.978C448.338 751.324 448.643 750.716 449.24 750.264C449.84 749.81 450.744 749.509 451.93 749.509C454.008 749.509 455.621 750.145 456.476 750.629L456.726 750.771L456.832 750.503L457.866 747.873L457.947 747.666L457.751 747.561C456.44 746.86 454.36 746.291 452.019 746.291C447.036 746.291 443.878 748.978 443.878 752.392C443.878 754.958 445.976 756.995 450.111 758.275C451.641 758.775 452.665 759.25 453.305 759.793C453.928 760.321 454.192 760.916 454.192 761.701C454.192 762.433 453.876 763.097 453.208 763.586C452.533 764.08 451.483 764.406 450.009 764.406C447.961 764.406 445.846 763.682 444.636 762.991Z"
            fill="url(#paint19_radial_0_1)" stroke="black" stroke-width="0.5" />
    </g>
    <rect x="879.256" y="445" width="407" height="860" transform="rotate(27.5865 879.256 445)"
        fill="#8A75C5" />
    <defs>
        <filter id="filter0_d_0_1" x="255.5" y="416.005" width="390.72" height="359.84"
            filterUnits="userSpaceOnUse" color-interpolation-filters="sRGB">
            <feFlood flood-opacity="0" result="BackgroundImageFix" />
            <feColorMatrix in="SourceAlpha" type="matrix"
                values="0 0 0 0 0 0 0 0 0 0 0 0 0 0 0 0 0 0 127 0" result="hardAlpha" />
            <feOffset dy="4" />
            <feGaussianBlur stdDeviation="2" />
            <feComposite in2="hardAlpha" operator="out" />
            <feColorMatrix type="matrix" values="0 0 0 0 0 0 0 0 0 0 0 0 0 0 0 0 0 0 0.25 0" />
            <feBlend mode="normal" in2="BackgroundImageFix" result="effect1_dropShadow_0_1" />
            <feBlend mode="normal" in="SourceGraphic" in2="effect1_dropShadow_0_1" result="shape" />
        </filter>
        <linearGradient id="paint0_linear_0_1" x1="844.176" y1="785.728" x2="9.99918" y2="785.122"
            gradientUnits="userSpaceOnUse">
            <stop stop-color="#00337C" />
            <stop offset="1" stop-color="#00337C" stop-opacity="0.15" />
        </linearGradient>
        <linearGradient id="paint1_linear_0_1" x1="875" y1="844" x2="0.799805" y2="844"
            gradientUnits="userSpaceOnUse">
            <stop stop-color="#00337C" />
            <stop offset="1" stop-color="#00337C" stop-opacity="0.15" />
        </linearGradient>
        <linearGradient id="paint2_linear_0_1" x1="851.5" y1="648" x2="-99" y2="642.5"
            gradientUnits="userSpaceOnUse">
            <stop stop-color="#03C988" />
            <stop offset="1" stop-color="#03C988" stop-opacity="0" />
        </linearGradient>
        <linearGradient id="paint3_linear_0_1" x1="843" y1="650" x2="22.6439" y2="649.299"
            gradientUnits="userSpaceOnUse">
            <stop stop-color="#03C988" />
            <stop offset="1" stop-color="#03C988" stop-opacity="0.15" />
        </linearGradient>
        <radialGradient id="paint4_radial_0_1" cx="0" cy="0" r="1" gradientUnits="userSpaceOnUse"
            gradientTransform="translate(306.899 675.494) rotate(90) scale(46.5443 46.8989)">
            <stop stop-color="#F8F8F8" />
            <stop offset="1" stop-color="#DCE7F1" />
        </radialGradient>
        <radialGradient id="paint5_radial_0_1" cx="0" cy="0" r="1" gradientUnits="userSpaceOnUse"
            gradientTransform="translate(402.5 675.524) rotate(90) scale(46.5443 35.285)">
            <stop stop-color="#F8F8F8" />
            <stop offset="1" stop-color="#DCE7F1" />
        </radialGradient>
        <radialGradient id="paint6_radial_0_1" cx="0" cy="0" r="1" gradientUnits="userSpaceOnUse"
            gradientTransform="translate(498.869 675.598) rotate(90) scale(48.5981 46.6921)">
            <stop stop-color="#F8F8F8" />
            <stop offset="1" stop-color="#DCE7F1" />
        </radialGradient>
        <radialGradient id="paint7_radial_0_1" cx="0" cy="0" r="1" gradientUnits="userSpaceOnUse"
            gradientTransform="translate(598.916 676.085) rotate(90) scale(47.1058 42.7469)">
            <stop stop-color="#F8F8F8" />
            <stop offset="1" stop-color="#DCE7F1" />
        </radialGradient>
        <radialGradient id="paint8_radial_0_1" cx="0" cy="0" r="1" gradientUnits="userSpaceOnUse"
            gradientTransform="translate(482.556 524.431) rotate(90) scale(33.0828 15.3687)">
            <stop stop-color="#F8F8F8" />
            <stop offset="1" stop-color="#DCE7F1" />
        </radialGradient>
        <radialGradient id="paint9_radial_0_1" cx="0" cy="0" r="1" gradientUnits="userSpaceOnUse"
            gradientTransform="translate(498 493) rotate(90) scale(15 30)">
            <stop stop-color="#F8F8F8" />
            <stop offset="1" stop-color="#DCE7F1" />
        </radialGradient>
        <radialGradient id="paint10_radial_0_1" cx="0" cy="0" r="1" gradientUnits="userSpaceOnUse"
            gradientTransform="translate(513 525) rotate(90) scale(33.5 15.5)">
            <stop stop-color="#F8F8F8" />
            <stop offset="1" stop-color="#DCE7F1" />
        </radialGradient>
        <radialGradient id="paint11_radial_0_1" cx="0" cy="0" r="1" gradientUnits="userSpaceOnUse"
            gradientTransform="translate(438.369 516.987) rotate(90) scale(60.6374 15.0863)">
            <stop stop-color="#F8F8F8" />
            <stop offset="1" stop-color="#DCE7F1" />
        </radialGradient>
        <radialGradient id="paint12_radial_0_1" cx="0" cy="0" r="1" gradientUnits="userSpaceOnUse"
            gradientTransform="translate(468.043 516.987) rotate(90) scale(60.6374 15.0863)">
            <stop stop-color="#F8F8F8" />
            <stop offset="1" stop-color="#DCE7F1" />
        </radialGradient>
        <radialGradient id="paint13_radial_0_1" cx="0" cy="0" r="1" gradientUnits="userSpaceOnUse"
            gradientTransform="translate(452.456 458.171) rotate(90) scale(14.8356 29.7001)">
            <stop stop-color="#F8F8F8" />
            <stop offset="1" stop-color="#DCE7F1" />
        </radialGradient>
        <radialGradient id="paint14_radial_0_1" cx="0" cy="0" r="1" gradientUnits="userSpaceOnUse"
            gradientTransform="translate(390.086 516.475) rotate(90) scale(84.525 15.0863)">
            <stop stop-color="#F8F8F8" />
            <stop offset="1" stop-color="#DCE7F1" />
        </radialGradient>
        <radialGradient id="paint15_radial_0_1" cx="0" cy="0" r="1" gradientUnits="userSpaceOnUse"
            gradientTransform="translate(420.288 516.475) rotate(90) scale(84.525 15.0866)">
            <stop stop-color="#F8F8F8" />
            <stop offset="1" stop-color="#DCE7F1" />
        </radialGradient>
        <radialGradient id="paint16_radial_0_1" cx="0" cy="0" r="1" gradientUnits="userSpaceOnUse"
            gradientTransform="translate(405.178 431.835) rotate(91) scale(14.8356 29.7055)">
            <stop stop-color="#F8F8F8" />
            <stop offset="1" stop-color="#DCE7F1" />
        </radialGradient>
        <radialGradient id="paint17_radial_0_1" cx="0" cy="0" r="1" gradientUnits="userSpaceOnUse"
            gradientTransform="translate(358.028 756.825) rotate(90) scale(10.5205 9.02812)">
            <stop stop-color="#F8F8F8" />
            <stop offset="1" stop-color="#DCE7F1" />
        </radialGradient>
        <radialGradient id="paint18_radial_0_1" cx="0" cy="0" r="1" gradientUnits="userSpaceOnUse"
            gradientTransform="translate(543.879 752.658) rotate(90) scale(14.6577 2.58697)">
            <stop stop-color="#F8F8F8" />
            <stop offset="1" stop-color="#DCE7F1" />
        </radialGradient>
        <radialGradient id="paint19_radial_0_1" cx="0" cy="0" r="1" gradientUnits="userSpaceOnUse"
            gradientTransform="translate(450.925 756.928) rotate(90) scale(10.3875 7.5062)">
            <stop stop-color="#F8F8F8" />
            <stop offset="1" stop-color="#DCE7F1" />
        </radialGradient>
    </defs>
</svg>